<?xml version="1.0" encoding="utf-8" standalone="no"?>
<!DOCTYPE svg PUBLIC "-//W3C//DTD SVG 1.1//EN" "http://www.w3.org/Graphics/SVG/1.1/DTD/svg11.dtd">
<svg version="1.1" width="240pt" height="240pt" viewBox="0 0 240 240" xmlns="http://www.w3.org/2000/svg">
  <defs />
  <g id="Default">
    <path d="M125.62651,27.186832 C103.02711,27.804783 76.36686,38.751373 64.80232,67.79514 C53.237778,96.83892 56.768936,143.97987 73.18882,170.64012 C89.6087,197.30035 118.91731,203.47989 139.4863,202.77367 C160.0553,202.06743 171.88467,194.47543 167.29417,182.29295 C162.70367,170.11044 141.69328,153.33745 136.22,140.80183 C130.74669,128.26624 140.81049,119.96801 155.19997,121.29219 C169.58943,122.61637 188.30457,133.56296 197.39731,128.53107 C206.49004,123.49916 205.96036,102.48878 202.34091,86.068886 C198.72148,69.64901 192.01228,57.819626 179.3884,47.049595 C166.76451,36.27956 148.22592,26.568878 125.62651,27.186832 z" stroke="#000000" stroke-width="0.24" stroke-linecap="round" stroke-linejoin="round" fill="none" />
    <path d="M0.48,239.52 L239.52,239.52 L239.52,0.48 L0.48,0.48 z" stroke="#000000" stroke-width="0.24" stroke-linecap="round" stroke-linejoin="round" fill="none" />
  </g>
</svg>