<?xml version="1.0" encoding="utf-8" standalone="no"?>
<!DOCTYPE svg PUBLIC "-//W3C//DTD SVG 1.1//EN" "http://www.w3.org/Graphics/SVG/1.1/DTD/svg11.dtd">
<svg version="1.1" width="240pt" height="240pt" viewBox="0 0 240 240" xmlns="http://www.w3.org/2000/svg">
  <defs />
  <g id="Default">
    <path d="M17.374632,183.14503 C30.004374,214.80342 53.78463,219.47194 71.58335,221.22264 C89.38208,222.97333 101.19926,221.8062 101.68659,217.52867 C102.17392,213.25113 91.3314,205.8632 82.49988,198.32501 C73.66836,190.78682 66.84784,183.09834 71.29017,175.25597 C75.7325,167.41359 91.437675,159.4173 103.04113,165.86131 C114.64459,172.30533 122.14631,193.18964 140.1945,206.11195 C158.2427,219.03426 186.83736,223.99457 203.5419,219.9096 C220.24643,215.82466 225.06085,202.69446 226.73859,173.66212 C228.41634,144.62978 226.95743,99.695305 217.98512,70.22529 C209.01283,40.755276 192.52713,26.749723 155.24176,23.321283 C117.95643,19.89284 59.87143,27.041506 31.568544,59.939964 C3.2656615,92.83841 4.7448893,151.48665 17.374632,183.14503 z" stroke="#000000" stroke-width="0.24" stroke-linecap="round" stroke-linejoin="round" fill="none" />
  </g>
</svg>